<?xml version="1.0" standalone="no"?>
<svg xmlns:xlink="http://www.w3.org/1999/xlink" id="wave" style="transform:rotate(180deg); transition: 0.3s" viewBox="0 0 1440 100" version="1.1" xmlns="http://www.w3.org/2000/svg"><defs><linearGradient id="sw-gradient-0" x1="0" x2="0" y1="1" y2="0"><stop stop-color="rgba(255, 249, 234, 1)" offset="0%"/><stop stop-color="rgba(255, 249, 234, 1)" offset="100%"/></linearGradient></defs><path style="transform:translate(0, 0px); opacity:1" fill="url(#sw-gradient-0)" d="M0,0L21.8,5C43.6,10,87,20,131,25C174.5,30,218,30,262,36.7C305.5,43,349,57,393,53.3C436.4,50,480,30,524,20C567.3,10,611,10,655,16.7C698.2,23,742,37,785,46.7C829.1,57,873,63,916,68.3C960,73,1004,77,1047,68.3C1090.9,60,1135,40,1178,35C1221.8,30,1265,40,1309,41.7C1352.7,43,1396,37,1440,33.3C1483.6,30,1527,30,1571,35C1614.5,40,1658,50,1702,55C1745.5,60,1789,60,1833,63.3C1876.4,67,1920,73,1964,78.3C2007.3,83,2051,87,2095,86.7C2138.2,87,2182,83,2225,76.7C2269.1,70,2313,60,2356,60C2400,60,2444,70,2487,63.3C2530.9,57,2575,33,2618,28.3C2661.8,23,2705,37,2749,43.3C2792.7,50,2836,50,2880,43.3C2923.6,37,2967,23,3011,16.7C3054.5,10,3098,10,3120,10L3141.8,10L3141.8,100L3120,100C3098.2,100,3055,100,3011,100C2967.3,100,2924,100,2880,100C2836.4,100,2793,100,2749,100C2705.5,100,2662,100,2618,100C2574.5,100,2531,100,2487,100C2443.6,100,2400,100,2356,100C2312.7,100,2269,100,2225,100C2181.8,100,2138,100,2095,100C2050.9,100,2007,100,1964,100C1920,100,1876,100,1833,100C1789.1,100,1745,100,1702,100C1658.2,100,1615,100,1571,100C1527.3,100,1484,100,1440,100C1396.4,100,1353,100,1309,100C1265.5,100,1222,100,1178,100C1134.5,100,1091,100,1047,100C1003.6,100,960,100,916,100C872.7,100,829,100,785,100C741.8,100,698,100,655,100C610.9,100,567,100,524,100C480,100,436,100,393,100C349.1,100,305,100,262,100C218.2,100,175,100,131,100C87.3,100,44,100,22,100L0,100Z"/></svg>